<svg version="1.2" xmlns="http://www.w3.org/2000/svg" viewBox="0 0 141 38" width="141" height="38">
	<title>ron_logo-svg</title>
	<style>
		.s0 { fill: #000000 } 
	</style>
	<g id="Layer">
		<path id="Layer" fill-rule="evenodd" class="s0" d="m5.6 32.7v-26.1c0-0.4 0.3-0.8 0.7-0.8h7.2c4.6 0 8.3 3.3 8.3 8.3 0 3.4-1.8 5.6-4.1 7.1-0.6 0.3-0.9 0.6-0.9 1 0 0.2 0.1 0.4 0.2 0.6l4.6 9.4c0.1 0.1 0.2 0.3 0.2 0.6 0 0.3-0.3 0.7-0.8 0.7h-2.4c-0.5 0-0.8-0.3-1-0.6l-4.7-10c-0.1-0.2-0.3-0.5-0.8-0.5h-2.4c-0.2 0-0.4 0.2-0.4 0.4v9.9c0 0.4-0.3 0.8-0.8 0.8h-2.1c-0.5 0-0.8-0.4-0.8-0.8zm7.9-14c2.4 0 4.4-1.7 4.4-4.6 0-2.9-2-4.5-4.4-4.5h-3.8c-0.2 0-0.4 0.1-0.4 0.4v8.3c0 0.2 0.2 0.4 0.4 0.4z"/>
		<path id="Layer" fill-rule="evenodd" class="s0" d="m26.8 29.2c-1.2-2.5-1.3-5.9-1.3-9.5 0-3.7 0.1-7.1 1.3-9.6 1.3-2.6 3.9-4.7 7.9-4.7 4 0 6.6 2.1 7.9 4.7 1.2 2.5 1.3 5.9 1.3 9.6 0 3.6-0.1 7-1.3 9.5-1.2 2.6-3.9 4.7-7.9 4.7-4 0-6.6-2.1-7.9-4.7zm12.3-1.7c0.8-1.6 0.9-4.9 0.9-7.8 0-3-0.1-6.3-0.9-7.9-0.8-1.5-2.3-2.6-4.4-2.6-2.1 0-3.6 1.1-4.4 2.6-0.9 1.6-0.9 4.9-0.9 7.9 0 2.9 0 6.2 0.9 7.8 0.8 1.6 2.3 2.6 4.4 2.6 2.1 0 3.6-1 4.4-2.6z"/>
		<path id="Layer" class="s0" d="m61.1 25.9c0.2 0 0.2-0.1 0.2-0.3v-19c0-0.4 0.4-0.8 0.8-0.8h2c0.5 0 0.8 0.4 0.8 0.8v26.1c0 0.4-0.3 0.8-0.8 0.8h-3.2c-0.5 0-0.7-0.2-0.9-0.7l-7.9-19.1c-0.2-0.3-0.2-0.4-0.4-0.4-0.1 0-0.2 0.1-0.2 0.3v19.1c0 0.4-0.3 0.8-0.8 0.8h-2c-0.4 0-0.8-0.4-0.8-0.8v-26.1c0-0.4 0.4-0.8 0.8-0.8h3.3c0.4 0 0.6 0.2 0.8 0.7l8 19c0.1 0.3 0.2 0.4 0.3 0.4z"/>
		<path id="Layer" fill-rule="evenodd" class="s0" d="m75.5 26.5c0-1.5 0.3-3.2 1.1-6.8 1.2-5.5 2-8.1 3.5-10.4 1.7-2.4 4.3-3.9 7.9-3.9 5.2 0 7.9 2.6 7.9 7.4 0 1.5-0.2 3.3-1 6.9-1 5-2 8-3.5 10.3-1.5 2.4-4.3 3.9-7.9 3.9-5.2 0-8-2.6-8-7.4zm13.1 0.8c0.8-1.2 1.6-3.8 2.4-7.6 0.8-3.7 1-5.3 1-6.4 0-2.7-1.4-4.1-4-4.1q-3.4 0-5.1 2.8c-0.8 1.2-1.6 3.8-2.5 7.7-0.7 3.6-1 5.2-1 6.3 0 2.7 1.5 4.1 4.1 4.1q3.4 0 5.1-2.8z"/>
		<path id="Layer" fill-rule="evenodd" class="s0" d="m97.1 32.7l5.6-26.1c0-0.4 0.5-0.8 0.9-0.8h6.3c4.7 0 7.6 2.8 7.6 7.4 0 3.7-2.6 7.2-6.2 8.6-1 0.4-1.2 0.6-0.9 1.3l4 9.2c0.2 0.6-0.3 1.2-1 1.2h-2c-0.5 0-0.7-0.2-1-0.8l-4.1-9.8c-0.2-0.4-0.3-0.5-0.7-0.5h-2.2c-0.2 0-0.4 0.2-0.4 0.4l-2.1 9.9c-0.1 0.4-0.5 0.8-1 0.8h-2.1c-0.5 0-0.7-0.4-0.7-0.8zm10.5-14c3.5 0 5.9-2.3 5.9-5.5 0-2.2-1.4-3.6-3.6-3.6h-3.7c-0.3 0-0.5 0.1-0.5 0.4l-1.8 8.3c0 0.2 0.1 0.4 0.3 0.4z"/>
		<path id="Layer" fill-rule="evenodd" class="s0" d="m119.3 32.7l5.6-26.1c0-0.4 0.5-0.8 0.9-0.8h6.3c4.7 0 7.6 2.8 7.6 7.4 0 5-4.5 9.2-9.9 9.2h-4.1c-0.3 0-0.5 0.2-0.5 0.4l-2.1 9.9c-0.1 0.4-0.5 0.8-1 0.8h-2.1c-0.5 0-0.8-0.4-0.7-0.8zm10.5-14c3.5 0 5.9-2.3 5.9-5.5 0-2.2-1.5-3.6-3.6-3.6h-3.8c-0.2 0-0.4 0.1-0.4 0.4l-1.8 8.3c0 0.2 0.1 0.4 0.3 0.4z"/>
	</g>
</svg>